<svg xmlns="http://www.w3.org/2000/svg" version="1.1" xmlns:xlink="http://www.w3.org/1999/xlink" xmlns:svgjs="http://svgjs.dev/svgjs" width="1500" height="549" viewBox="0 0 1500 549"><g transform="matrix(1,0,0,1,-0.9090909090909918,0.6933429401280478)"><svg viewBox="0 0 396 145" data-background-color="#000000" preserveAspectRatio="xMidYMid meet" height="549" width="1500" xmlns="http://www.w3.org/2000/svg" xmlns:xlink="http://www.w3.org/1999/xlink"><g id="tight-bounds" transform="matrix(1,0,0,1,0.2400000000000091,-0.1831233630575042)"><svg viewBox="0 0 395.52 145.366246726115" height="145.366246726115" width="395.52"><g><svg viewBox="0 0 665.0614821840338 244.43135999999998" height="145.366246726115" width="395.52"><g transform="matrix(1,0,0,1,0,31.27592393978125)"><svg viewBox="0 0 395.52 181.87951212043748" height="181.87951212043748" width="395.52"><g id="textblocktransform"><svg viewBox="0 0 395.52 181.87951212043748" height="181.87951212043748" width="395.52" id="textblock"><g><svg viewBox="0 0 395.52 106.36456981664315" height="106.36456981664315" width="395.52"><g transform="matrix(1,0,0,1,0,0)"><svg width="395.52" viewBox="2.45 -22.65 106.34 28.599999999999998" height="106.36456981664315" data-palette-color="#ffffff"><path d="M18.9-6.85L18.9-6.85 18.9-3.4Q18.9 0 14.75 0L14.75 0 6.5 0Q2.45 0 2.45-3.55L2.45-3.55 2.45-17.8Q2.45-21.45 6.5-21.45L6.5-21.45 14.75-21.45Q18.9-21.45 18.9-17.95L18.9-17.95 18.9-15.55Q18.65-14.05 16.75-12.55L16.75-12.55Q16-11.95 16-11.25L16-11.25Q16-10.6 16.7-9.95L16.7-9.95Q18.7-8.1 18.9-6.85ZM14.3-8.2L14.3-8.2 12.85-9.3Q12.3-9.7 11.7-9.95 11.1-10.2 10.6-10.2L10.6-10.2 8.9-10.2Q5.95-10.2 5.95-6.65L5.95-6.65 5.95-4.55Q5.95-1.85 8.95-1.85L8.95-1.85 12.9-1.85Q15.4-1.85 15.4-4.3L15.4-4.3 15.4-6.5Q15.4-6.85 15.08-7.28 14.75-7.7 14.3-8.2ZM12.85-12.95L14.3-14.15Q14.75-14.6 15.08-15.15 15.4-15.7 15.4-16.5L15.4-16.5 15.4-17.6Q15.4-19.5 12.9-19.5L12.9-19.5 8.95-19.5Q5.95-19.5 5.95-15.9L5.95-15.9 5.95-15.05Q5.95-12.1 8.8-12.1L8.8-12.1 10.6-12.1Q11.15-12.1 11.73-12.3 12.3-12.5 12.85-12.95L12.85-12.95ZM35.7-12.05L35.7-3.45Q35.7-1.6 34.72-0.8 33.75 0 31.9 0L31.9 0 27.75 0Q23.75 0 23.75-3.45L23.75-3.45 23.75-12.1Q23.75-13.7 24.7-14.65 25.65-15.6 27.65-15.6L27.65-15.6 31.9-15.6Q33.75-15.6 34.72-14.65 35.7-13.7 35.7-12.05L35.7-12.05ZM32.1-4.75L32.1-4.75 32.1-10.85Q32.1-13.8 30-13.8L30-13.8 29.35-13.8Q27.4-13.8 27.4-10.6L27.4-10.6 27.4-4.7Q27.4-1.7 29.4-1.7L29.4-1.7 30.15-1.7Q32.1-1.7 32.1-4.75ZM45.8-9.35L45.8-9.35 47.45-13.1Q48.7-15.75 49.84-15.75L49.84-15.75Q50.45-15.75 50.74-15.25 51.05-14.75 51.05-14.2L51.05-14.2Q51.05-13.65 50.8-12.65L50.8-12.65 48.84-8.9Q48.24-7.7 48.24-6.7L48.24-6.7Q48.2-6.15 48.37-5.68 48.55-5.2 48.84-4.7L48.84-4.7 50.59-1.55Q50.89-0.9 50.89-0.65L50.89-0.65Q50.89-0.2 50.49 0.13 50.09 0.45 49.49 0.45L49.49 0.45Q48.45 0.45 47.45-1.05L47.45-1.05 45.64-4.45Q44.84-5.45 44.49-5.45L44.49-5.45Q44.14-5.45 44.14-4.55L44.14-4.55 44.14-2.6Q44.14 0.25 42.39 0.25L42.39 0.25Q40.55 0.25 40.55-2.15L40.55-2.15 40.55-20.1Q40.55-21.2 40.92-21.78 41.3-22.35 42.34-22.35L42.34-22.35Q44.05-22.35 44.14-19.85L44.14-19.85 44.14-10.3Q44.14-8.45 44.95-8.45L44.95-8.45Q45.2-8.45 45.8-9.35ZM61.04-9.35L61.04-9.35 62.69-13.1Q63.94-15.75 65.09-15.75L65.09-15.75Q65.69-15.75 65.99-15.25 66.29-14.75 66.29-14.2L66.29-14.2Q66.29-13.65 66.04-12.65L66.04-12.65 64.09-8.9Q63.49-7.7 63.49-6.7L63.49-6.7Q63.44-6.15 63.62-5.68 63.79-5.2 64.09-4.7L64.09-4.7 65.84-1.55Q66.14-0.9 66.14-0.65L66.14-0.65Q66.14-0.2 65.74 0.13 65.34 0.45 64.74 0.45L64.74 0.45Q63.69 0.45 62.69-1.05L62.69-1.05 60.89-4.45Q60.09-5.45 59.74-5.45L59.74-5.45Q59.39-5.45 59.39-4.55L59.39-4.55 59.39-2.6Q59.39 0.25 57.64 0.25L57.64 0.25Q55.79 0.25 55.79-2.15L55.79-2.15 55.79-20.1Q55.79-21.2 56.17-21.78 56.54-22.35 57.59-22.35L57.59-22.35Q59.29-22.35 59.39-19.85L59.39-19.85 59.39-10.3Q59.39-8.45 60.19-8.45L60.19-8.45Q60.44-8.45 61.04-9.35ZM73.19-19.95L73.19-19.95Q71.29-19.95 71.29-21.3L71.29-21.3Q71.29-22.65 73.19-22.65L73.19-22.65Q74.99-22.65 74.99-21.3L74.99-21.3Q74.99-19.95 73.19-19.95ZM73.19 0.2L73.19 0.2Q71.34 0.2 71.34-2.1L71.34-2.1 71.34-13.15Q71.34-15.5 73.19-15.5L73.19-15.5Q74.94-15.5 74.94-13.25L74.94-13.25 74.94-2.15Q74.94 0.2 73.19 0.2ZM88.44-2.45L88.44-11Q88.44-13.8 86.34-13.8L86.34-13.8 85.69-13.8Q83.69-13.8 83.69-10.8L83.69-10.8 83.69-2.45Q83.69 0.2 81.94 0.2L81.94 0.2Q80.04 0.2 80.04-2.1L80.04-2.1 80.04-12.1Q80.04-13.7 81.01-14.65 81.99-15.6 83.99-15.6L83.99-15.6 88.24-15.6Q90.09-15.6 91.06-14.68 92.04-13.75 92.04-12.15L92.04-12.15 92.04-2.2Q92.04 0.2 90.19 0.2L90.19 0.2Q88.44 0.2 88.44-2.45L88.44-2.45ZM98.44 4.25L103.39 4.25Q105.19 4.25 105.19 2.85L105.19 2.85 105.19 1.55Q105.19 0 103.34 0L103.34 0 100.74 0Q98.74 0 97.79-0.78 96.84-1.55 96.84-3.35L96.84-3.35 96.84-12.2Q96.84-13.8 97.79-14.7 98.74-15.6 100.74-15.6L100.74-15.6 104.99-15.6Q106.84-15.6 107.81-14.7 108.79-13.8 108.79-12.2L108.79-12.2 108.79 2.55Q108.79 4.35 107.81 5.15 106.84 5.95 105.04 5.95L105.04 5.95 98.39 5.95Q96.84 5.95 96.84 5.15L96.84 5.15Q96.84 4.25 98.44 4.25L98.44 4.25ZM105.19-4.8L105.19-4.8 105.19-10.85Q105.19-13.85 103.09-13.85L103.09-13.85 102.44-13.85Q100.49-13.85 100.49-10.65L100.49-10.65 100.49-4.75Q100.49-1.7 102.49-1.7L102.49-1.7 103.24-1.7Q105.19-1.7 105.19-4.8Z" opacity="1" transform="matrix(1,0,0,1,0,0)" fill="#ffffff" class="wordmark-text-0" data-fill-palette-color="primary" id="text-0"></path></svg></g></svg></g><g transform="matrix(1,0,0,1,163.310208,131.474692000677)"><svg viewBox="0 0 232.209792 50.40482011976047" height="50.40482011976047" width="232.209792"><g transform="matrix(1,0,0,1,0,0)"><svg width="232.209792" viewBox="1 -37.5 233.78 50.75" height="50.40482011976047" data-palette-color="#ffffff"><path d="M5.75-33L2.4-33 2.4-35 13.45-35 22.55-5.05 31.15-35 42.5-35 42.5-33 39.1-33 40.9-2 43.9-2 43.9 0 30.5 0 30.5-2 33.35-2 31.8-26.75 24.1 0 16.55 0 8.4-26.7 7-2 9.9-2 9.9 0 1 0 1-2 4-2 5.75-33ZM59.1-11.55Q62.35-11.85 64.12-14.03 65.9-16.2 65.9-18.43 65.9-20.65 64.92-21.85 63.95-23.05 61.97-23.05 60-23.05 58.2-20.25 56.4-17.45 56.4-12.75 56.4-8.05 58.1-5.2 59.8-2.35 62.95-2.35L62.95-2.35Q67.75-2.35 71.1-6.1L71.1-6.1 72.5-5.2Q70.8-2.5 68-0.88 65.2 0.75 61.7 0.75L61.7 0.75Q55.75 0.75 52.2-3.18 48.65-7.1 48.65-12.65 48.65-18.2 52.42-21.98 56.2-25.75 62.9-25.75L62.9-25.75Q67.3-25.75 69.8-23.7 72.3-21.65 72.3-18.5 72.3-15.35 69.52-12.68 66.75-10 62.2-10L62.2-10Q60.65-10 59.2-10.35L59.2-10.35 59.1-11.55ZM88.95-11.55Q92.2-11.85 93.97-14.03 95.75-16.2 95.75-18.43 95.75-20.65 94.77-21.85 93.8-23.05 91.82-23.05 89.84-23.05 88.05-20.25 86.25-17.45 86.25-12.75 86.25-8.05 87.95-5.2 89.65-2.35 92.8-2.35L92.8-2.35Q97.59-2.35 100.95-6.1L100.95-6.1 102.34-5.2Q100.65-2.5 97.84-0.88 95.05 0.75 91.55 0.75L91.55 0.75Q85.59 0.75 82.05-3.18 78.5-7.1 78.5-12.65 78.5-18.2 82.27-21.98 86.05-25.75 92.75-25.75L92.75-25.75Q97.15-25.75 99.65-23.7 102.15-21.65 102.15-18.5 102.15-15.35 99.37-12.68 96.59-10 92.05-10L92.05-10Q90.5-10 89.05-10.35L89.05-10.35 88.95-11.55ZM111.14-22.25L107.04-22.25 107.04-24.3 111.14-24.3 111.14-31.5 118.64-31.5 118.64-24.3 124.29-24.3 124.29-22.25 118.64-22.25 118.64-5.55Q118.64-4.2 119.29-3.43 119.94-2.65 121.29-2.65 122.64-2.65 124.39-4.1L124.39-4.1 125.29-2.9Q121.29 0.75 117.29 0.75L117.29 0.75Q111.14 0.75 111.14-6.6L111.14-6.6 111.14-22.25ZM134.02-30.68Q132.84-31.85 132.84-33.5 132.84-35.15 134.02-36.33 135.19-37.5 136.84-37.5 138.49-37.5 139.67-36.33 140.84-35.15 140.84-33.5 140.84-31.85 139.67-30.68 138.49-29.5 136.84-29.5 135.19-29.5 134.02-30.68ZM135.89-25.75L135.89-25.75Q140.59-25.75 140.59-21.7L140.59-21.7 140.59-5.55Q140.59-4.2 141.24-3.43 141.89-2.65 143.24-2.65 144.59-2.65 146.34-4.1L146.34-4.1 147.24-2.9Q143.24 0.75 139.24 0.75L139.24 0.75Q133.09 0.75 133.09-6.6L133.09-6.6 133.09-23.35Q130.34-22.65 128.89-20.9L128.89-20.9 127.54-22.45Q128.99-23.95 131.22-24.85 133.44-25.75 135.89-25.75ZM152.44-25L152.44-25Q156.54-25 159.84-22.5L159.84-22.5Q161.74-24.3 163.74-25.03 165.74-25.75 168.86-25.75 171.99-25.75 173.96-23.78 175.94-21.8 175.94-18.4L175.94-18.4 175.94-5.55Q175.94-4.2 176.59-3.43 177.24-2.65 178.59-2.65 179.94-2.65 181.69-4.1L181.69-4.1 182.59-2.9Q178.59 0.75 174.59 0.75L174.59 0.75Q168.44 0.75 168.44-6.6L168.44-6.6 168.44-19.45Q168.44-21 167.49-21.85 166.54-22.7 164.86-22.7 163.19-22.7 161.56-21.35 159.94-20 159.94-17.85L159.94-17.85 159.94 0 152.44 0 152.44-23Q150.19-23 148.44-22.25L148.44-22.25 147.74-24.1Q149.89-25 152.44-25ZM202.54 6.6L202.54 6.6 193.28 6.6Q185.94 6.6 185.94 0.45L185.94 0.45Q185.94-2.9 189.64-7.1L189.64-7.1Q185.59-10.05 185.59-15.25L185.59-15.25Q185.59-19.7 188.84-22.73 192.09-25.75 197.34-25.75L197.34-25.75Q201.14-25.75 204.09-24L204.09-24Q206.24-25.95 207.04-29.1L207.04-29.1 208.99-28.6Q208.09-25.1 205.69-22.8L205.69-22.8Q209.09-19.7 209.09-15.25 209.09-10.8 205.84-7.78 202.59-4.75 197.34-4.75L197.34-4.75Q193.74-4.75 191.09-6.2L191.09-6.2Q189.34-3.75 189.34-2.5L189.34-2.5Q189.34 0 192.24 0L192.24 0 201.49 0Q208.84 0 208.84 5.4L208.84 5.4Q208.84 9.25 205.19 13.25L205.19 13.25 203.99 12.1Q205.44 10.35 205.44 9.13 205.44 7.9 204.66 7.25 203.89 6.6 202.54 6.6ZM194.36-21.3Q193.34-18.95 193.34-15.25 193.34-11.55 194.36-9.2 195.39-6.85 197.39-6.85 199.39-6.85 200.41-9.2 201.44-11.55 201.44-15.25 201.44-18.95 200.41-21.3 199.39-23.65 197.39-23.65 195.39-23.65 194.36-21.3ZM221.33-20.9L221.33-20.9Q220.13-22.75 220.13-24.2 220.13-25.65 221.26-26.78 222.38-27.9 223.98-27.9 225.58-27.9 226.71-26.78 227.83-25.65 227.83-24.1 227.83-22.55 226.28-20.8L226.28-20.8Q230.38-17.8 232.58-14.93 234.78-12.05 234.78-8.28 234.78-4.5 231.93-1.88 229.08 0.75 223.83 0.75L223.83 0.75Q221.43 0.75 219.01-0.3 216.58-1.35 215.33-2.9L215.33-2.9 216.48-4.1Q218.68-2.35 221.23-2.35 223.78-2.35 225.41-3.73 227.03-5.1 227.03-8L227.03-8Q227.03-12.6 223.63-17.6L223.63-17.6 216.08-8.15 214.83-9.25Q218.63-15.4 221.33-20.9Z" opacity="1" transform="matrix(1,0,0,1,0,0)" fill="#ffffff" class="slogan-text-1" data-fill-palette-color="secondary" id="text-1"></path></svg></g></svg></g></svg></g></svg></g><g transform="matrix(1,0,0,1,420.63012218403384,0)"><svg viewBox="0 0 244.43135999999998 244.43135999999998" height="244.43135999999998" width="244.43135999999998"><g><svg xmlns="http://www.w3.org/2000/svg" xmlns:xlink="http://www.w3.org/1999/xlink" version="1.1" x="0" y="0" viewBox="8 7.779 84 84" enable-background="new 0 0 100 100" xml:space="preserve" height="244.43135999999998" width="244.43135999999998" class="icon-icon-0" data-fill-palette-color="accent" id="icon-0"><path d="M50 7.779c-23.159 0-42 18.841-42 42s18.841 42 42 42 42-18.841 42-42S73.159 7.779 50 7.779zM50 63.175c-3.977 0-7.336-7.141-7.369-15.621l1.855-2.534h11.028l1.855 2.534C57.336 56.034 53.977 63.175 50 63.175zM34.583 55.079L14.502 31.348c0.968-1.86 2.072-3.637 3.309-5.312l24.752 18.143L34.583 55.079zM57.434 44.175L82.12 25.94c1.265 1.702 2.392 3.513 3.378 5.408l-20.08 23.732L57.434 44.175zM50 9.779c12.422 0 23.521 5.663 30.858 14.547L55.616 42.972H44.382L19.068 24.418C26.404 15.481 37.535 9.779 50 9.779zM10 49.779c0-5.852 1.267-11.405 3.525-16.415l21.174 25.024 6.044-8.255c0.474 6.098 2.522 11.086 5.373 13.487L40.93 88.733C23.21 84.623 10 68.749 10 49.779zM42.858 89.13l5.038-24.401c0.675 0.283 1.377 0.446 2.103 0.446 0.727 0 1.429-0.163 2.104-0.446l5.038 24.401c-2.319 0.418-4.703 0.648-7.142 0.648S45.177 89.548 42.858 89.13zM59.07 88.733l-5.185-25.114c2.85-2.401 4.898-7.389 5.372-13.487l6.044 8.255 21.174-25.025C88.733 38.373 90 43.926 90 49.779 90 68.749 76.79 84.623 59.07 88.733z" fill="#ffffff" data-fill-palette-color="accent"></path></svg></g></svg></g></svg></g><defs></defs></svg><rect width="395.52" height="145.366246726115" fill="none" stroke="none" visibility="hidden"></rect></g></svg></g></svg>